<?xml version="1.0" standalone="no"?>
<!DOCTYPE svg PUBLIC "-//W3C//DTD SVG 20010904//EN"
 "http://www.w3.org/TR/2001/REC-SVG-20010904/DTD/svg10.dtd">
<svg version="1.0" xmlns="http://www.w3.org/2000/svg"
 width="1280.000000pt" height="640.000000pt" viewBox="0 0 1280.000000 640.000000"
 preserveAspectRatio="xMidYMid meet">
<g transform="translate(0.000000,640.000000) scale(0.100000,-0.100000)"
fill="#000000" stroke="none">
<path d="M2710 5569 c-598 -44 -1154 -236 -1727 -595 -267 -168 -499 -263
-717 -293 -90 -13 -133 -42 -173 -117 -49 -94 -76 -238 -90 -477 -5 -81 -3
-105 13 -140 31 -71 53 -95 139 -152 100 -66 181 -152 228 -243 45 -88 60
-137 97 -322 164 -824 463 -1384 922 -1729 235 -176 570 -361 817 -451 625
-227 1262 -188 1954 120 646 287 1068 713 1362 1374 71 159 174 457 225 651
76 289 185 413 406 460 103 22 332 30 448 16 266 -34 401 -131 524 -376 22
-44 77 -179 122 -300 45 -121 108 -274 139 -340 245 -515 700 -1044 1175
-1363 745 -501 1512 -602 2255 -298 308 126 530 266 730 460 343 334 552 748
686 1362 109 499 210 699 372 745 94 26 183 148 183 252 0 47 -37 289 -55 359
-20 81 -59 152 -113 211 -64 67 -108 96 -237 152 -225 97 -421 203 -649 349
-361 232 -815 401 -1276 475 -1100 177 -1875 -66 -2770 -869 -140 -125 -170
-144 -262 -161 -102 -19 -187 4 -398 105 -278 134 -338 150 -560 151 -133 0
-177 -4 -230 -19 -94 -28 -194 -72 -269 -119 -118 -73 -159 -89 -226 -90 -95
-1 -155 33 -300 172 -376 361 -689 598 -980 741 -426 210 -1196 341 -1765 299z
m495 -340 c794 -60 1473 -503 1795 -1172 141 -292 198 -564 187 -887 -8 -225
-40 -392 -114 -590 -219 -587 -728 -1054 -1356 -1244 -233 -71 -406 -96 -667
-96 -370 0 -676 69 -995 225 -1009 492 -1428 1635 -955 2600 107 218 223 377
406 556 335 325 771 534 1240 594 108 13 159 18 279 23 22 1 103 -3 180 -9z
m7032 -94 c874 -114 1584 -720 1788 -1525 71 -281 73 -611 6 -894 -85 -354
-290 -704 -567 -965 -673 -637 -1718 -780 -2556 -349 -193 99 -349 210 -507
363 -299 288 -492 637 -573 1036 -20 100 -23 143 -23 349 0 263 11 348 71 546
227 756 922 1325 1754 1438 145 19 460 20 607 1z"/>
</g>
</svg>
